<?xml version="1.0" encoding="UTF-8"?>
<svg xmlns="http://www.w3.org/2000/svg" xmlns:xlink="http://www.w3.org/1999/xlink" version="1.1" viewBox="0 0 113.3857 56.6924">
  <defs>
    <clipPath id="clippath">
      <rect x="26.8177" y="7.0864" width="59.7503" height="42.5196" fill="none"/>
    </clipPath>
    <clipPath id="clippath-1">
      <rect x="26.8177" y="7.0864" width="59.7503" height="42.5196" fill="none"/>
    </clipPath>
  </defs>
  <!-- Generator: Adobe Illustrator 28.7.1, SVG Export Plug-In . SVG Version: 1.2.0 Build 142)  -->
  <g>
    <g id="Capa_1">
      <g>
        <rect x="36.4177" y="37.6079" width="31.1771" height="11.5782" fill="#ce5d29"/>
        <g clip-path="url(#clippath)">
          <path d="M41.0148,41.4541c-.1739-.0052-.3477.0194-.5127.0733v3.7985c.1721.0485.3503.0732.5294.0723.93,0,1.2944-.6326,1.2944-2.0108,0-1.3165-.4032-1.9412-1.3111-1.9412M41.0457,46.0485c-.5277.0257-1.0536-.0697-1.538-.2806v-4.6446c.4685-.1995.975-.2947,1.485-.2798,1.6412,0,2.3497,1.0536,2.3497,2.5686,0,1.5159-.6547,2.6418-2.2967,2.6418" fill="#fff"/>
          <path d="M48.2872,46.0485c-.465.0309-.93-.0661-1.3447-.2806l.2461-.6547c.2754.1598.5895.2418.908.2348.5356,0,.8682-.3106.8682-.7818,0-.3803-.2382-.6185-.84-.84-.885-.3476-1.1205-.8938-1.1205-1.3835,0-.8048.6247-1.4877,1.6279-1.4877.4147-.0212.8276.0768,1.1903.2797l-.2189.5603c-.2558-.1465-.5452-.2241-.84-.2267-.3811-.0548-.735.2091-.7905.5903-.0071.0494-.0089.0996-.0053.1491,0,.4403.3476.6476.8206.8409,1.065.42,1.2247.9803,1.2247,1.4646,0,.8992-.7289,1.5468-1.7374,1.5468" fill="#fff"/>
          <path d="M55.8257,42.3342c-.0662-.1986-.1129-.4033-.1403-.6115h-.0168c-.0291.2082-.0794.4129-.1482.6115l-.5859,1.7814h1.4542l-.563-1.7814ZM56.9463,45.9756l-.4173-1.3049h-1.7542l-.4341,1.3049h-.8991l1.8097-5.0647h.9468l1.7929,5.0647h-1.0447Z" fill="#fff"/>
          <path d="M63.3756,46.0485c-1.3809,0-2.0842-1.2017-2.0842-2.6055,0-1.403.7086-2.6047,2.0895-2.6047.3935-.0212.7835.0758,1.1205.2797l-.2241.5603c-.2126-.1209-.4553-.1818-.6997-.1765-.9309,0-1.2494.9556-1.2494,1.927,0,.9724.3556,1.8997,1.2494,1.8997.2409.0097.4791-.052.6856-.1764l.2382.6053c-.337.2038-.727.3009-1.1205.2797" fill="#fff"/>
        </g>
        <rect x="27.2377" y="7.5073" width="30.1068" height="30.1067" fill="#2c4689"/>
        <g clip-path="url(#clippath-1)">
          <path d="M32.6081,24.7072c-.3521-.0309-.6901.1438-.8691.4482-.2065.3477-.2992.9274-.2992,1.8071,0,1.6641.4174,2.1715,1.1762,2.1715.7147,0,1.1012-.6389,1.1012-2.1715,0-1.5318-.4006-2.2632-1.1012-2.2632M34.9834,30.5624h-.6556c-.2233.0098-.4192-.1455-.4624-.3643l-.1174-.5603c-.3299.6326-.9847,1.0279-1.6976,1.0252-1.3226,0-2.4229-.7729-2.4229-3.7649,0-1.2494.1932-2.2606.84-2.9612.3962-.4289.9485-.6794,1.5326-.6944.6538-.0177,1.2715.2991,1.6385.84v-3.7112c-.0026-.2029.1589-.3697.3618-.3732h.9777c.2038-.0071.3758.1517.3829.3556.0009.0061.0009.0115.0009.0176v9.8268c.0009.2047-.1633.3715-.3671.3732h-.0062" fill="#fff"/>
          <path d="M39.5888,24.6987c-.3565-.0211-.6935.1641-.8656.4765-.2073.345-.3141.9221-.3141,1.7876,0,1.6642.4182,2.1565,1.177,2.1565.7148,0,1.1012-.6247,1.1012-2.1565,0-1.5326-.4006-2.2641-1.1012-2.2641M39.4909,33.6131c-.7792.0177-1.5548-.1041-2.2915-.3582-.1571-.0574-.2382-.2303-.1818-.3874.0018-.0044.0036-.0088.0053-.0132l.2215-.818c.0318-.1658.1915-.2744.3573-.2426.0203.0044.0406.0097.06.0185.5427.1765,1.1092.2709,1.6809.2797.9662,0,1.2803-.5073,1.2803-1.3835v-1.0085c-.33.5656-.937.9114-1.5918.907-1.3243,0-2.4255-.8399-2.4255-3.72,0-1.2493.1932-2.2606.84-2.9611.4014-.428.96-.675,1.5467-.6838.7227-.0239,1.3968.3626,1.7427.9979l.1173-.5356c.0442-.2188.2383-.375.4624-.3724h.6556c.2038-.0017.3706.1624.3723.3671v6.8638c0,1.4559-.1341,3.0503-2.8429,3.0503" fill="#fff"/>
          <path d="M47.273,27.1416l-.7729.0423c-.7897.0451-1.2662.3274-1.2662,1.2212,0,.6106.3865.8409.7447.8409.7597,0,1.2944-.6106,1.2944-1.1206v-.9838ZM48.8083,30.5624h-.84c-.2215,0-.3424-.1173-.3873-.3723l-.0724-.4597c-.4032.608-1.1629.9221-2.04.9221-1.3103,0-1.935-.863-1.935-2.2412s.7897-2.2165,2.3974-2.3365l1.3535-.1041v-.2797c0-.6838-.2524-.967-1.1012-.967-.4959.0123-.9882.0979-1.4594.2523-.1685.0732-.3653-.0035-.4385-.1729-.0097-.0203-.0159-.0424-.0212-.0653l-.1791-.728c-.0715-.165.0044-.3564.1694-.427.022-.0097.045-.0168.0688-.0212.6371-.1915,1.2962-.2956,1.9606-.3115,2.6029,0,2.7371,1.6536,2.7371,2.9162v2.4406c-.0142.3873.0052.7756.0591,1.1594l.0529.4315c.0503.1465-.0282.3061-.1747.3556-.0476.0167-.0997.0194-.15.0087" fill="#fff"/>
          <path d="M54.7865,30.428c-.4941.1606-1.0129.2364-1.5326.2241-1.8882,0-3.0953-1.2044-3.0953-3.7932,0-2.0559,1.1462-3.6168,3.1994-3.6168.4527.0036.9017.0891,1.3253.2524.2515.1041.3132.2806.2515.4315l-.2436.7314c-.0441.1756-.2214.2824-.397.2383-.0177-.0045-.0345-.0097-.0512-.0177-.2506-.0979-.5179-.1482-.7871-.1482-.9388,0-1.5185.7006-1.5185,2.1291,0,1.5609.4765,2.2606,1.5776,2.2606.3212.0052.6415-.0336.9521-.1174.1394-.067.3071-.0079.3732.1315.0159.0335.0256.0697.0274.1068l.1482.7561c.0609.1721-.03.3609-.202.4209-.0124.0044-.0239.0079-.0362.0106" fill="#fff"/>
          <path d="M46.6009,15.5495c1.5292.8771,2.9383.7818,5.1353.5462-.6697.4341-7.6147,4.5777-7.6147.3759,0-.7315.1209-1.1206.6194-1.9615.0389-.0644.0953-.1509.1677-.255.51.4994,1.0738.9397,1.6809,1.3138M51.6798,7.5069h-.7421c-2.9109,1.1038-4.8494,2.4935-6.1156,3.8047-1.1938-.8744-3.0423-1.7012-4.1409.5603.765-.2974,1.1912-.3529,2.8412,1.0279,0,0,0,.0142.0221.0168-.4659.6803-.7889,1.4488-.9495,2.2579-.2302,1.5768.1598,3.1315,1.7312,3.6891,2.6162.9247,7.3536-2.4988,8.0903-2.9779-.937-.3591-1.8511-.7756-2.7371-1.2468-1.1788-.615-2.3126-1.3138-3.3926-2.0894,1.6015-1.8785,3.4112-3.5709,5.393-5.0426" fill="#fff"/>
          <path d="M61.7535,11.524c-.3864,0-.4985.4624-.4985.8991,0,.6556.1986.8718.4959.8718.2965,0,.4818-.2612.4818-.8656,0-.6053-.188-.9026-.4792-.9026v-.0027ZM62.6501,13.7652h-.2021c-.0786.0053-.1474-.0512-.1597-.1288l-.0389-.1933c-.1306.233-.3829.3707-.6503.3556-.5152,0-.9441-.3335-.9441-1.4002,0-.8268.3503-1.365.9556-1.365.2453-.0168.4792.1085.6.3229v-1.4012c.0009-.0715.06-.1279.1315-.1262h.308c.0714-.0017.1296.0547.1314.1262v3.6812c-.0009.0715-.06.1288-.1314.1288" fill="#2c4689"/>
          <path d="M64.0202,13.7649h-.3053c-.0714.0017-.1306-.0547-.1324-.1253v-2.4238c0-.0697.0565-.1262.1262-.1262h.3115c.0679-.0027.1253.0494.1288.1182v2.4282c.0009.0698-.0538.128-.1235.1289h-.0053M63.8658,10.5549c-.203-.0027-.3644-.1694-.3618-.3724v-.0061c-.0044-.1995.1536-.3645.353-.3697h.0088c.2012,0,.3644.1632.3644.3643v.0054c.0044.2047-.157.3741-.3617.3785h-.0027" fill="#2c4689"/>
          <path d="M66.3367,11.5773c-.0098.0688-.0733.1174-.1421.1076-.0088-.0017-.0177-.0035-.0256-.007-.0891-.0415-.1835-.0697-.2806-.0838-.1818,0-.3556.21-.3556.7394v1.3032c.0018.0689-.0538.1271-.1235.1289h-.3132c-.0733.0008-.1333-.0565-.135-.1289v-2.4212c.0017-.0706.0608-.127.1314-.1261.0009.0009.0018.0009.0036.0009h.21c.0688-.0009.1279.0476.1429.1146l.0609.2215c.1147-.2258.3423-.3715.5938-.3811.0715,0,.1421.0132.2073.0388.1042.0423.1377.1094.1157.1879l-.09.3053Z" fill="#2c4689"/>
          <path d="M67.8354,11.499c-.2241,0-.4121.1791-.457.6838h.8885c-.0062-.3503-.1147-.6838-.4315-.6838M68.7178,12.5887h-1.3394c.0282.4368.1632.7085.6388.7085.1818-.0026.3609-.0423.5267-.1147.0574-.0229.1227.0053.1456.0636.0027.0061.0044.0132.0062.0202l.0777.2268c.022.0636-.0115.1315-.0742.1535-.0017,0-.0026.0009-.0035.0009-.2312.1077-.4853.1597-.7403.1518-.742,0-1.1762-.4686-1.1762-1.4012,0-.8206.4059-1.3641,1.0448-1.3641s1.0199.3979,1.0199,1.4003c.0168.0662-.0229.1332-.0882.1509-.0123.0026-.0256.0044-.0379.0035" fill="#2c4689"/>
          <path d="M70.9393,13.7092c-.1756.0617-.36.0917-.5462.09-.6865,0-1.1206-.4685-1.1206-1.4012,0-.7703.4394-1.3473,1.1541-1.3473.1659,0,.3309.0309.4844.0926.0812.0389.1042.0953.0874.1571l-.0706.232c-.0115.0609-.0697.1006-.1306.09-.0106-.0026-.0221-.0061-.0318-.0115-.1076-.0449-.2223-.0679-.3388-.067-.3273,0-.5603.2991-.5603.8541,0,.6106.1933.8886.5771.8886.1341,0,.2673-.0195.3953-.0592.0503-.0229.1103-.0009.1332.0494.0053.0115.0089.0247.0097.0371l.0503.2471c.0115.0652-.0282.1296-.0926.1482" fill="#2c4689"/>
          <path d="M72.6202,13.7316c-.1324.0459-.2718.0688-.4121.0671-.3865,0-.5603-.2153-.5603-.6054v-1.6605h-.2321c-.0714-.0018-.1288-.06-.1288-.1324v-.1791c-.0017-.0706.0547-.1297.1262-.1315h.2347v-.5796c-.0088-.0768.0388-.1483.1121-.1712l.2947-.0838c.0953-.0283.165,0,.165.1173v.7173h.2797c.0715,0,.1297.0574.1297.1289v.1817c0,.0724-.0574.1306-.1297.1324h-.2797v1.6271c0,.0952.0555.1323.1403.1323.0538-.0018.1076-.0097.1597-.0256.0573-.0177.1182.015.1359.0732.0017.0062.0035.0124.0035.0194l.045.2294c.0229.0645-.0053.1095-.0838.143" fill="#2c4689"/>
          <path d="M73.6177,13.7649h-.3053c-.0733.0017-.1333-.0556-.135-.1289v-2.4202c.0017-.0706.0609-.1271.1314-.1262h.3089c.0679-.0009.1244.0529.1262.1209v2.4255c.0026.068-.0495.1262-.1174.1289-.0044.0009-.008.0009-.0115,0h.0027ZM73.4606,10.5549c-.2029-.0027-.3644-.1694-.3617-.3724v-.0061c0-.2012.1632-.3636.3644-.3636s.3644.1624.3644.3636c.0044.2047-.1571.3741-.3618.3785h-.0053" fill="#2c4689"/>
          <path d="M75.486,11.5214c-.3053,0-.5127.2489-.5127.8939,0,.6441.2126.8929.5127.8929.2999,0,.5152-.232.5152-.8929,0-.6618-.21-.8939-.5152-.8939M75.486,13.7988c-.6945,0-1.0951-.5214-1.0951-1.3835,0-.863.4059-1.3703,1.0951-1.3703s1.0923.5215,1.0923,1.3703-.4006,1.3835-1.0923,1.3835" fill="#2c4689"/>
          <path d="M79.0634,13.7652h-.308c-.0732.0018-.1332-.0565-.135-.1288v-1.7815c0-.2162-.075-.3282-.2797-.3282-.3097.0106-.5514.27-.5408.5788,0,.015.0017.0291.0026.0432v1.4877c-.0009.0715-.06.1288-.1315.1288h-.3053c-.0723.0018-.1332-.0565-.1341-.1288v-2.4203c.0009-.0715.06-.128.1315-.1262h.2179c.068-.0079.1297.0397.1377.1077v.0017l.0503.2127c.1764-.2268.4464-.3618.7341-.3671.3565-.0212.6626.2515.6838.6079.0018.0283.0018.0565,0,.0839v1.8997c-.0018.0688-.0556.1244-.1235.1288" fill="#2c4689"/>
          <path d="M61.6948,18.1518c-.2806,0-.4571.1156-.4571.5436,0,.4288.1853.5602.4571.5602s.4482-.1482.4482-.5602c0-.4112-.1879-.5436-.4482-.5436M61.776,21.5559c-.5603,0-1.1206-.1852-1.1206-.7958-.0018-.0706.0547-.1297.1262-.1315h.3247c.0706,0,.1094.0477.1209.1209.0503.2797.3158.3273.5602.3273.3441,0,.585-.1429.585-.367s-.0952-.3168-.3979-.3168h-.5603c-.3159,0-.6212-.1085-.6212-.4588.0062-.1791.0918-.3459.2321-.4571-.2417-.1782-.3794-.4641-.3697-.765-.0318-.5152.3609-.9591.8762-.9908.0494-.0027.0979-.0027.1464.0026.1597,0,.3.0388.4147.0388h.6777c.067-.0097.1297.038.1394.105.0009.0088.0018.0177.0009.0265v.1632c0,.0892-.0335.1227-.1068.1289l-.2797.0247c.1191.1393.1827.3185.1791.5011.0265.5118-.3661.9486-.8779.975-.0433.0018-.0874.0018-.1306-.0026-.0944.0008-.1888-.0106-.2806-.0336-.0441.0371-.0706.0909-.0723.1483,0,.1121.0838.135.2488.135h.4791c.5162,0,.8409.2488.8409.7341,0,.6635-.5886.8876-1.1347.8876" fill="#2c4689"/>
          <path d="M64.4427,18.1518c-.2241,0-.4112.1765-.4562.6812h.8876c-.0052-.3389-.1147-.6812-.4314-.6812M64.9915,16.8636l-.9662.4315c-.0458.0335-.1112.0229-.1447-.0239-.0035-.0044-.0062-.0097-.0088-.0159l-.0847-.1482c-.0326-.0521-.0168-.1217.0353-.1544.0053-.0027.0097-.0053.015-.008l.9168-.5603c.045-.0344.1102-.0264.1447.0195.0062.0079.0114.0159.015.0256l.1394.2797c.0255.0564.0009.1235-.0556.1482-.0062.0026-.0115.0044-.0168.0062h.0106ZM65.3365,19.2503h-1.3394c.0282.4395.1633.7112.6388.7112.1818-.0035.3609-.0432.5268-.1173.0573-.023.1226.0052.1456.0635.0026.0062.0044.0132.0062.0203l.0785.2276c.0211.0645-.0133.1342-.0777.1562h-.0008c-.2321.1068-.4853.1571-.7403.1491-.7421,0-1.1762-.465-1.1762-1.4011,0-.8233.4058-1.3668,1.0447-1.3668s1.0227.4006,1.0227,1.4144c.0096.0688-.0389.1324-.1077.142-.0071.0009-.0141.0009-.0212.0009" fill="#2c4689"/>
          <path d="M67.9223,20.4269h-.3053c-.0707,0-.1289-.0556-.1316-.1261v-1.7841c0-.2162-.0785-.3283-.2805-.3283-.3088.0106-.5515.27-.5409.5788.0009.0151.0018.0292.0035.0433v1.4903c-.0035.0715-.0635.1279-.135.1261h-.3053c-.0714.0018-.1314-.0546-.1341-.1261v-2.4292c.0027-.0714.0627-.127.1341-.1252h.2162c.0688-.0089.1315.0406.1394.1103v.0017l.0512.21c.1791-.2312.4553-.3671.7473-.3671.3574-.0211.6636.2506.6847.608.0018.0282.0009.0574-.0008.0865v1.8997c0,.0723-.0583.1314-.1315.1323-.0035,0-.0079-.0009-.0114-.0009" fill="#2c4689"/>
          <path d="M69.7715,18.1518c-.2215,0-.4094.1765-.4545.6812h.8886c-.0062-.3389-.1068-.6812-.4341-.6812M70.3141,16.8636l-.9662.4315c-.0476.0344-.1138.0229-.1482-.0257-.0035-.0044-.0062-.0087-.0088-.0141l-.0812-.1482c-.0335-.0521-.0185-.1209.0335-.1544.0053-.0035.0097-.0053.0142-.008l.9159-.5603c.0476-.0352.1137-.0255.149.0212.0062.0071.0106.015.0142.0239l.1367.2797c.0274.0556.0044.1226-.0511.15-.0036.0017-.0071.0035-.0106.0044h.0026ZM70.6591,19.2503h-1.3394c.0282.4395.1597.7112.6388.7112.1818-.0035.3609-.0441.5268-.1173.0573-.023.1226.0052.1456.0635.0026.0062.0044.0132.0062.0203l.075.2276c.0229.0636-.0115.1342-.075.1562-.2321.1068-.4853.1571-.7403.1491-.7447,0-1.1762-.465-1.1762-1.4011,0-.8233.4032-1.3668,1.042-1.3668s1.0227.4006,1.0227,1.4144c.0088.0688-.0388.1324-.1086.142-.0052.0009-.0114.0009-.0176.0009" fill="#2c4689"/>
          <path d="M72.7995,18.2391c-.0098.0688-.0733.1174-.1421.1076-.0088-.0017-.0177-.0035-.0256-.007-.0891-.0415-.1835-.0697-.2806-.0838-.1818,0-.3556.2126-.3556.7394v1.3059c0,.0697-.0564.1262-.1261.1262h-.3106c-.0724.0008-.1315-.0548-.135-.1262v-2.4291c.0035-.0715.0626-.128.135-.1262h.21c.0679.0008.127.0485.1429.1147l.0609.2241c.1147-.2259.3414-.3724.5947-.3838.0706,0,.1412.0132.2064.0397.1042.045.1377.112.1157.1879l-.09.3106Z" fill="#2c4689"/>
          <path d="M74.8133,19.1325l-.3107.0168c-.3106.0168-.532.1235-.532.4677,0,.2805.12.3838.3106.3838.27.0053.4994-.1941.5321-.4615v-.4068ZM75.3347,20.4269h-.2938c-.0715.0044-.1324-.0494-.1377-.12v-.0061l-.0335-.2074c-.1615.2453-.4412.3856-.7341.3671-.465,0-.7421-.3053-.7421-.8153,0-.5603.3865-.84.9106-.8656l.5092-.0283v-.1288c0-.2797-.0945-.4226-.4448-.4226-.1835.0035-.3653.0353-.5382.0953-.0583.0256-.1262,0-.1518-.0583-.0035-.0079-.0062-.0167-.0079-.0256l-.0556-.2443c-.0212-.0583.0097-.1218.068-.143.007-.0026.0141-.0044.0211-.0053.2241-.0706.4571-.1085.6918-.112.6724,0,.9838.2806.9838.9943v.9892c-.0071.1465.0026.2929.0282.4368l.0336.1738c.0159.052-.0133.1067-.0653.1226-.0133.0044-.0274.0053-.0415.0035" fill="#2c4689"/>
          <path d="M76.6179,20.4269h-.3053c-.0715.0018-.1306-.0546-.1315-.1261v-3.6785c.0009-.0706.06-.1271.1315-.1254h.3053c.0697-.0017.127.053.1288.1227v3.6812c0,.0697-.0565.1261-.1262.1261h-.0026Z" fill="#2c4689"/>
          <path d="M78.4612,18.1518c-.2215,0-.4121.1765-.4536.6812h.8877c-.0053-.3389-.1121-.6812-.4341-.6812M79.3436,19.2503h-1.336c.0248.4395.1598.7112.6354.7112.1826-.0035.3626-.0432.5293-.1173.0848-.0283.1262.022.1492.0838l.0776.2276c.0221.0645-.0124.1342-.0768.1562h-.0008c-.2312.1068-.4836.1579-.7368.1491-.7456,0-1.1797-.465-1.1797-1.4011,0-.8233.4059-1.3668,1.0447-1.3668s1.0227.4006,1.0227,1.4144c.0097.0688-.0389.1324-.1077.142-.007.0009-.0141.0009-.0211.0009" fill="#2c4689"/>
          <path d="M62.3334,33.6972c-.18.0635-.3697.0935-.5603.09-.6864,0-1.1206-.4685-1.1206-1.4012,0-.7703.4404-1.3473,1.1541-1.3473.1659-.0018.3309.03.4845.0926.0679.0185.1076.0891.09.1571l-.0733.232c-.0115.0609-.0697.1006-.1305.09-.0106-.0026-.0212-.0061-.0318-.0115-.1068-.0449-.2224-.0679-.3389-.067-.3273,0-.5603.2991-.5603.8541,0,.6106.196.8886.5771.8886.1341,0,.2674-.0195.3953-.0592.0521-.0238.1138,0,.1368.0521.0053.0114.0079.0229.0088.0344l.0477.247c.0132.0618-.0203.1245-.0786.1483" fill="#2c4689"/>
          <path d="M63.4486,33.7527h-.3053c-.0733.0018-.1333-.0555-.1351-.1288v-2.4203c.0018-.0706.061-.127.1315-.1261h.3089c.0679-.0027.1252.0503.1288.1182v2.4282c.0018.0698-.0539.128-.1236.1288-.0017.0009-.0035.0009-.0052,0M63.2915,30.5427c-.203-.0043-.3636-.172-.3582-.375v-.0035c-.0054-.1994.1526-.3644.3529-.3697h.0053c.2012,0,.3644.1633.3644.3644v.0053c.0044.2047-.157.3742-.3617.3785h-.0027" fill="#2c4689"/>
          <path d="M65.5467,33.6355c-.015.0697-.0768.1191-.1482.1174h-.5127c-.0724.007-.1358-.0459-.1429-.1174l-.6786-2.3982c-.0273-.1059.023-.1597.0954-.1597h.3758c.0732-.0027.1377.0485.1509.1209l.3953,1.717c.0388.1765.0644.4818.0697.5268.0194-.1792.0476-.3565.0847-.5321l.3944-1.7117c.0124-.0715.0759-.1227.1482-.1209h.3504c.0732,0,.1288.0538.1014.1544l-.6838,2.4035Z" fill="#2c4689"/>
          <path d="M67.1464,33.7527h-.3053c-.0732.0018-.1332-.0555-.135-.1288v-2.4203c.0018-.0706.0609-.127.1315-.1261h.3088c.0679-.0009.1244.0529.1262.1209v2.4255c.0026.0688-.0494.1262-.1183.1288-.0026.0009-.0052.0009-.0079,0M66.9894,30.5427c-.203-.0043-.3636-.172-.3583-.375v-.0035c-.0053-.1994.1527-.3644.353-.3697h.0053c.2011-.0009.3652.1606.367.3618v.0079c.0044.2047-.157.3742-.3617.3785h-.0053" fill="#2c4689"/>
          <path d="M68.5162,33.7532h-.3053c-.0715,0-.1306-.0573-.1315-.1289v-3.6758c.0009-.0706.06-.1271.1315-.1253h.3053c.0679-.0035.1253.0494.1288.1173v3.6838c.0018.0698-.0538.1271-.1235.1289h-.0053" fill="#2c4689"/>
          <path d="M70.3597,31.4869c-.2215,0-.4095.1791-.4544.6838h.8885c-.0062-.3503-.1174-.6838-.4341-.6838M71.2447,32.5766h-1.3394c.0282.4368.1597.7085.6388.7085.1818-.0035.3609-.0424.5268-.1147.0573-.0229.1226.0053.1455.0636.0027.0061.0044.0131.0062.0202l.075.2268c.0221.0635-.0106.1314-.0732.1535-.0009.0009-.0018.0009-.0018.0009-.2312.1076-.4853.1597-.7403.1517-.7447,0-1.1761-.4685-1.1761-1.4011,0-.8206.4032-1.3641,1.042-1.3641s1.0226.3979,1.0226,1.4003c.015.0679-.0273.1358-.0952.1509-.0097.0026-.0203.0035-.0309.0035" fill="#2c4689"/>
          <path d="M61.7195,24.937c-.3636,0-.4677.4315-.4677.8409,0,.6132.188.8153.4624.8153s.4508-.2444.4508-.81-.1737-.8462-.442-.8462h-.0035ZM62.5604,27.0326h-.188c-.0741.0053-.1394-.0468-.1509-.1209l-.0362-.1818c-.1217.2189-.3582.3485-.6079.3336-.4852,0-.8859-.3115-.8859-1.2998,0-.7737.3283-1.2776.8965-1.2776.2294-.0159.4465.1006.5603.3v-1.3112c.0018-.067.0565-.1208.1235-.1208h.2798c.067,0,.1217.0538.1234.1208v3.4368c-.0008.0644-.0511.1165-.1146.1209" fill="#2c4689"/>
          <path d="M64.3284,24.9117c-.2073,0-.3838.1659-.4262.6388h.8401c0-.3273-.1033-.6388-.4006-.6388h-.0133ZM65.1685,25.9317h-1.2521c.0247.4094.1508.6635.5964.6635.1703-.0035.3371-.0406.4933-.1085.0564-.0203.1191.0097.1394.0662.0009.0035.0027.0079.0035.0123l.0697.2127c.0221.0582-.0079.1226-.0653.1438-.0017.0009-.0035.0009-.0044.0017-.217.0998-.4535.1474-.6917.1403-.698,0-1.1038-.4376-1.1038-1.2996,0-.7677.3802-1.2777.9776-1.2777.5965,0,.9582.3724.9582,1.3244,0,.0671-.0547.1209-.1208.1209" fill="#2c4689"/>
          <path d="M67.6729,27.0326h-.2797c-.0671,0-.1218-.0538-.1236-.1209v-3.4368c.0018-.067.0565-.1208.1236-.1208h.2797c.0661,0,.1209.0538.1209.1208v3.4368c0,.0671-.0548.1209-.1209.1209" fill="#2c4689"/>
          <path d="M68.8523,24.699c-.0503.0477-.1095.0786-.165.031l-.1157-.0927c-.0494-.0344-.0617-.1024-.0273-.1517.0027-.0036.0053-.0071.0079-.0106.0538-.0565.0989-.1192.1351-.188.0361-.0723.0193-.1032-.0203-.1341-.0883-.0653-.1395-.1703-.1368-.2806.0097-.202.1826-.3582.3847-.3485.2029.0106.3591.1826.3494.3856-.0221.3088-.1712.5947-.412.7896" fill="#2c4689"/>
          <path d="M71.1045,24.2981c-.0344-.1526-.06-.307-.0785-.4623-.0168.1562-.0423.3106-.0785.4623l-.3388,1.373h.8408l-.345-1.373ZM72.3204,27.0326h-.3644c-.0724,0-.1376-.0459-.1624-.1147l-.2126-.7677h-1.0897l-.1994.7677c-.0168.0688-.0794.1164-.1509.1147h-.322c-.0786,0-.1148-.0671-.0954-.1456l.9045-3.2215c.0247-.0697.09-.1156.1623-.1147h.5047c.0724-.0018.1377.045.1597.1147l.9724,3.2215c.0079.0785-.0282.1456-.1068.1456" fill="#2c4689"/>
          <path d="M73.9873,26.9233c-.015.0654-.0733.1112-.1404.1095h-.4755c-.068.0052-.1279-.0424-.1376-.1095l-.6336-2.2411c-.0247-.0979.0203-.1482.09-.1482h.353c.0679-.0027.1279.0449.1403.112l.3697,1.6077c.0361.1658.0617.4508.067.4932,0-.0424.0362-.3274.0785-.4985l.3671-1.6024c.0123-.0671.0723-.1147.1403-.112h.3273c.0671,0,.1209.0503.0954.1455l-.6415,2.2438Z" fill="#2c4689"/>
          <path d="M75.4858,27.0387h-.2797c-.0679.0009-.1244-.0529-.1262-.1209v-2.2721c.0027-.067.0592-.1191.1262-.1173h.2797c.0636-.0018.1165.0485.1174.112.0009.0018.0009.0035,0,.0053v2.2668c.0018.0644-.0494.1182-.1147.12h-.0027v.0062ZM75.3403,24.0351c-.1906-.0026-.3424-.1597-.3389-.3502v-.0053c-.0044-.1871.143-.3433.33-.3477h.0089c.1905.0018.3432.1571.3414.3477.0036.1923-.1491.3512-.3414.3555" fill="#2c4689"/>
          <path d="M77.5706,25.822l-.2806.0141c-.2797.0168-.4986.1147-.4986.4376,0,.2489.1148.3583.2798.3583.2523.0044.4676-.1809.4994-.4315v-.3785ZM78.0577,27.0326h-.2807c-.0688.0035-.1279-.0503-.1314-.12v-.0009l-.0309-.1897c-.1509.2276-.4129.3582-.6856.3415-.435,0-.6953-.2806-.6953-.765s.3644-.7844.8409-.8091l.4791-.0256v-.12c0-.2807-.09-.3954-.4182-.3954-.1712.0036-.3415.0327-.5038.0865-.0538.0247-.1165.0009-.1412-.052-.0035-.008-.0053-.0159-.0071-.023l-.0538-.2303c-.0203-.0529.0062-.1129.06-.1341.008-.0026.0159-.0044.0247-.0062.21-.0661.4289-.1006.6494-.1032.6274,0,.9194.2806.9194.93v.9247c-.007.1376.0018.2753.0247.4112l.0309.1597c.0159.0494-.0114.1015-.06.1165-.007.0026-.0141.0035-.0211.0044" fill="#2c4689"/>
          <path d="M79.845,27.0018c-.1236.0415-.2533.0627-.3839.0618-.3644,0-.5179-.2021-.5179-.5603v-1.5609h-.2188c-.0662,0-.12-.0538-.12-.12v-.1711c-.0018-.0662.0502-.1218.1173-.1227h.2215v-.5409c-.0088-.0724.0344-.1403.1032-.1623l.2806-.0786c.0891-.0255.1562,0,.1562.1095v.6723h.2806c.067.0009.12.0556.12.1227v.1685c0,.067-.053.1217-.12.1226h-.2806v1.5247c-.0062.0609.038.1165.0988.1236.0106.0008.0203.0008.0309-.0009.0512-.0009.1015-.0097.1509-.0248.0538-.0158.1094.0151.1253.068.0017.0071.0026.0141.0035.0212l.0424.2135c.0053.0609-.0309.1032-.09.1341" fill="#2c4689"/>
          <path d="M80.8171,27.0387h-.2798c-.067,0-.1217-.0539-.1235-.1209v-2.2721c.0018-.0662.0565-.1191.1235-.1173h.2798c.0652-.0018.1191.0494.1208.1147v2.2694c0,.0662-.0546.12-.1208.12v.0062ZM80.6715,24.0351c-.1906-.0043-.3406-.1623-.3362-.3529v-.0026c-.0044-.1871.1429-.3433.33-.3477h.0062c.1905-.0044.3485.1456.3529.3362v.0053c.0062.1941-.1456.3556-.3388.3617h-.0141" fill="#2c4689"/>
          <path d="M82.6212,24.9316c-.2806,0-.4792.2356-.4792.84,0,.6053.1986.8409.4792.8409s.4844-.2188.4844-.8409c0-.6212-.1986-.84-.4844-.84M82.6212,27.0634c-.6504,0-1.0227-.487-1.0227-1.2944,0-.8065.3785-1.283,1.0227-1.283s1.0253.488,1.0253,1.283c0,.7959-.3812,1.2944-1.0253,1.2944" fill="#2c4689"/>
          <path d="M86.0222,27.0326h-.2807c-.0661,0-.1217-.0538-.1226-.1209v-1.6667c0-.2039-.0733-.308-.2806-.308-.2947.0176-.5197.2709-.5021.5656,0,.0061,0,.0115.0009.0176v1.4003c-.0017.0679-.0582.1218-.1261.1209h-.2798c-.0679.0009-.1244-.053-.1261-.1209v-2.2747c.0026-.067.0591-.1191.1261-.1173h.2012c.0653-.0071.1235.0388.1315.1032l.045.1959c.1685-.2144.4253-.3397.6979-.3415.3335-.0194.6195.2347.6398.5691.0008.0265.0008.0538-.001.0812v1.7753c-.0017.0671-.0564.1209-.1234.1209" fill="#2c4689"/>
        </g>
      </g>
    </g>
  </g>
</svg>